<svg width="39" height="45" viewBox="0 0 39 45" fill="none" xmlns="http://www.w3.org/2000/svg">
<path d="M25.8737 21.1714C25.8737 22.5309 24.8709 23.6451 23.6006 23.6451C22.3526 23.6451 21.3274 22.5309 21.3274 21.1714C21.3274 19.812 22.3303 18.6977 23.6006 18.6977C24.8709 18.6977 25.8737 19.812 25.8737 21.1714ZM15.4663 18.6977C14.196 18.6977 13.1931 19.812 13.1931 21.1714C13.1931 22.5309 14.2183 23.6451 15.4663 23.6451C16.7366 23.6451 17.7394 22.5309 17.7394 21.1714C17.7617 19.812 16.7366 18.6977 15.4663 18.6977ZM39 4.59086V44.5714C33.3856 39.6099 35.1811 41.2523 28.6594 35.1891L29.8406 39.312H4.56857C2.05029 39.312 0 37.2617 0 34.7211V4.59086C0 2.05029 2.05029 0 4.56857 0H34.4314C36.9497 0 39 2.05029 39 4.59086ZM32.6486 25.7177C32.6486 18.5417 29.4394 12.7251 29.4394 12.7251C26.2303 10.3183 23.1771 10.3851 23.1771 10.3851L22.8651 10.7417C26.6537 11.9006 28.4143 13.572 28.4143 13.572C23.1205 10.6706 16.902 10.6701 11.7669 12.9257C10.9423 13.3046 10.452 13.572 10.452 13.572C10.452 13.572 12.3017 11.8114 16.3131 10.6526L16.0903 10.3851C16.0903 10.3851 13.0371 10.3183 9.828 12.7251C9.828 12.7251 6.61886 18.5417 6.61886 25.7177C6.61886 25.7177 8.49086 28.9491 13.416 29.1051C13.416 29.1051 14.2406 28.1023 14.9091 27.2554C12.0789 26.4086 11.0091 24.6257 11.0091 24.6257C11.337 24.8552 11.8776 25.1527 11.9229 25.1829C15.6844 27.2894 21.0276 27.9795 25.8291 25.9629C26.6091 25.6731 27.4783 25.2497 28.392 24.648C28.392 24.648 27.2777 26.4754 24.3583 27.3C25.0269 28.1469 25.8291 29.1051 25.8291 29.1051C30.7543 28.9491 32.6486 25.7177 32.6486 25.7177V25.7177Z" fill="#FDD000"/>
</svg>
