<svg width="39" height="39" viewBox="0 0 39 39" fill="none" xmlns="http://www.w3.org/2000/svg">
<path d="M19.4948 9.86956C13.958 9.86956 9.48956 14.1759 9.48956 19.5119C9.48956 24.8478 13.958 29.1542 19.4948 29.1542C25.0315 29.1542 29.5 24.8478 29.5 19.5119C29.5 14.1759 25.0315 9.86956 19.4948 9.86956ZM19.4948 25.7787C15.9142 25.7787 12.9921 22.9626 12.9921 19.5119C12.9921 16.0611 15.9142 13.2451 19.4948 13.2451C23.0754 13.2451 25.9974 16.0611 25.9974 19.5119C25.9974 22.9626 23.0754 25.7787 19.4948 25.7787ZM29.9097 7.22744C28.617 7.22744 27.5731 8.23351 27.5731 9.47935C27.5731 10.7252 28.617 11.7313 29.9097 11.7313C31.2025 11.7313 32.2464 10.7299 32.2464 9.47935C32.2468 9.18352 32.1866 8.89053 32.0693 8.61715C31.952 8.34376 31.7799 8.09537 31.5629 7.88618C31.3458 7.677 31.0881 7.51114 30.8044 7.3981C30.5207 7.28507 30.2167 7.22707 29.9097 7.22744ZM38.9978 19.5119C38.9978 16.9168 39.0222 14.3452 38.871 11.7548C38.7198 8.74595 38.0076 6.07563 35.7246 3.87543C33.4367 1.67054 30.6707 0.988853 27.5487 0.843114C24.8559 0.697374 22.1875 0.720881 19.4996 0.720881C16.8069 0.720881 14.1385 0.697374 11.4506 0.843114C8.32855 0.988853 5.55773 1.67524 3.27473 3.87543C0.986849 6.08033 0.279509 8.74595 0.128284 11.7548C-0.0229401 14.3499 0.00145099 16.9215 0.00145099 19.5119C0.00145099 22.1023 -0.0229401 24.6786 0.128284 27.269C0.279509 30.2778 0.991727 32.9481 3.27473 35.1483C5.56261 37.3532 8.32855 38.0349 11.4506 38.1806C14.1434 38.3264 16.8117 38.3029 19.4996 38.3029C22.1924 38.3029 24.8608 38.3264 27.5487 38.1806C30.6707 38.0349 33.4416 37.3485 35.7246 35.1483C38.0124 32.9434 38.7198 30.2778 38.871 27.269C39.0271 24.6786 38.9978 22.107 38.9978 19.5119ZM34.705 30.5975C34.3489 31.4531 33.9196 32.0925 33.2318 32.7507C32.544 33.4135 31.8854 33.8272 30.9976 34.1704C28.4316 35.153 22.3388 34.932 19.4948 34.932C16.6508 34.932 10.553 35.153 7.98707 34.1751C7.09924 33.8319 6.4358 33.4182 5.75285 32.7554C5.06503 32.0925 4.63575 31.4578 4.27964 30.6022C3.26497 28.1246 3.49425 22.2527 3.49425 19.5119C3.49425 16.771 3.26497 10.8944 4.27964 8.42157C4.63575 7.56593 5.06503 6.92656 5.75285 6.26838C6.44068 5.61021 7.09924 5.19179 7.98707 4.8486C10.553 3.87073 16.6508 4.09169 19.4948 4.09169C22.3388 4.09169 28.4365 3.87073 31.0024 4.8486C31.8903 5.19179 32.5537 5.6055 33.2367 6.26838C33.9245 6.93126 34.3538 7.56593 34.7099 8.42157C35.7246 10.8944 35.4953 16.771 35.4953 19.5119C35.4953 22.2527 35.7246 28.1246 34.705 30.5975Z" fill="#FDD000"/>
</svg>
