<svg width="39" height="40" viewBox="0 0 39 40" fill="none" xmlns="http://www.w3.org/2000/svg">
<path d="M8.72973 39.3659H0.644196V13.6452H8.72973V39.3659ZM4.68261 10.1366C2.09712 10.1366 0 8.02118 0 5.46716C1.85058e-08 4.24037 0.493345 3.06383 1.37151 2.19636C2.24967 1.32889 3.44071 0.841553 4.68261 0.841553C5.92452 0.841553 7.11556 1.32889 7.99372 2.19636C8.87188 3.06383 9.36522 4.24037 9.36522 5.46716C9.36522 8.02118 7.26723 10.1366 4.68261 10.1366ZM38.9913 39.3659H30.9232V26.8452C30.9232 23.8612 30.8622 20.0345 26.7194 20.0345C22.5155 20.0345 21.8713 23.2765 21.8713 26.6303V39.3659H13.7945V13.6452H21.5492V17.1537H21.6624C22.7419 15.1329 25.3787 13.0002 29.3127 13.0002C37.4957 13.0002 39 18.3232 39 25.2372V39.3659H38.9913Z" fill="#FDD000"/>
</svg>
