<svg width="39" height="40" viewBox="0 0 39 40" fill="none" xmlns="http://www.w3.org/2000/svg">
<path d="M37.1888 11.9905C37.1662 11.9251 37.1367 11.8623 37.1002 11.8031C35.1728 7.82568 31.9035 4.59917 27.875 2.69868C27.8214 2.6674 27.765 2.64076 27.7052 2.62025C25.2096 1.47206 22.4297 0.829346 19.5001 0.829346C16.5718 0.829346 13.7929 1.47138 11.2982 2.61855C11.2335 2.64065 11.171 2.66921 11.1121 2.70446C7.08833 4.6062 3.82348 7.83123 1.89838 11.806C1.86281 11.864 1.8339 11.9255 1.81152 11.9893C0.650079 14.4537 0 17.1987 0 20.0915C0 22.9875 0.65157 25.7356 1.81554 28.2021C1.83562 28.2577 1.86086 28.3105 1.89057 28.3607C3.8135 32.3403 7.07881 35.5702 11.1045 37.475C11.1629 37.5107 11.2255 37.5381 11.2899 37.5607C13.7867 38.7102 16.5684 39.3538 19.4999 39.3538C22.427 39.3538 25.2049 38.7123 27.6989 37.5659C27.763 37.5442 27.8235 37.5158 27.8806 37.4819C29.9165 36.5207 31.758 35.221 33.3306 33.6565C33.3646 33.6305 33.3978 33.6028 33.4286 33.5718C34.9491 32.0392 36.1887 30.2747 37.1098 28.3638C38.3405 26.2813 39 22.5292 39 20.0917C39 17.1994 38.35 14.4546 37.1888 11.9905ZM9.6104 5.7366C9.16971 6.86699 8.78168 8.01642 8.44861 9.17651C7.27512 9.50484 6.11218 9.88757 4.96783 10.3228C6.21143 8.52303 7.78843 6.96525 9.6104 5.7366ZM3.44498 13.0091C4.89303 12.3532 6.38364 11.784 7.89823 11.3121C7.31069 13.8908 6.98553 16.5156 6.92254 19.1456H1.94174C2.06061 16.9706 2.58632 14.9008 3.44498 13.0091ZM1.94174 21.0378H6.92254C6.98553 23.6675 7.31069 26.292 7.89812 28.8706C6.38123 28.3977 4.8905 27.8287 3.44475 27.1737C2.5862 25.2821 2.06061 23.2125 1.94174 21.0378ZM4.96703 29.8599C6.11058 30.2947 7.27397 30.6776 8.44872 31.0066C8.78202 32.1679 9.16971 33.3172 9.60994 34.4466C7.78786 33.2176 6.21085 31.6597 4.96703 29.8599ZM18.5421 37.4357C16.3401 37.3184 14.2446 36.7988 12.3292 35.9507C11.6664 34.5232 11.0902 33.0504 10.6112 31.5509C13.2219 32.1322 15.879 32.454 18.542 32.5162V37.4357H18.5421ZM18.5421 30.6234C15.6724 30.553 12.8094 30.167 10.0107 29.4639C9.30004 26.6994 8.90972 23.8717 8.83859 21.0377H18.5421V30.6234ZM18.5421 19.1456H8.83847C8.90961 16.3109 9.30004 13.4826 10.0109 10.7181C12.8096 10.0161 15.6726 9.6303 18.5421 9.56015V19.1456ZM18.5421 7.66735C15.8795 7.72946 13.2223 8.05054 10.6118 8.63103C11.0903 7.13434 11.6664 5.66191 12.3299 4.23254C14.2449 3.38435 16.3403 2.86494 18.5421 2.74764V7.66735ZM35.9426 13.9357C34.6588 12.9284 33.0528 12.3069 31.3038 12.2487C31.2404 11.9354 31.1719 11.6231 31.1007 11.3112C32.6183 11.7841 34.1092 12.3531 35.5543 13.0074C35.6927 13.3124 35.8218 13.622 35.9426 13.9357ZM36.9549 19.1456H32.0771C32.0372 17.4797 31.8931 15.8158 31.6425 14.1646C34.3574 14.4362 36.5424 16.5057 36.9549 19.1456ZM31.6733 28.6868C31.483 28.7494 31.2928 28.812 31.1016 28.8716C31.1439 28.6859 31.1849 28.5001 31.2245 28.314C31.4148 28.3824 31.5735 28.5156 31.6733 28.6868ZM34.0315 10.3218C32.8883 9.88723 31.7249 9.50427 30.5497 9.17526C30.2166 8.01495 29.829 6.86586 29.389 5.73637C31.2109 6.96468 32.7877 8.52223 34.0315 10.3218ZM28.8604 19.1456C28.8647 19.0844 28.8674 19.0229 28.8674 18.9605V18.5556C28.8674 17.0477 27.6255 15.8207 26.0949 15.8207C25.6245 15.8207 25.2419 15.4422 25.2419 14.9768C25.2419 14.5122 25.6245 14.1342 26.0949 14.1342H29.6987C29.9649 15.7945 30.119 17.4688 30.1611 19.1456H28.8604V19.1456ZM30.1611 21.0378C30.1163 22.8225 29.9456 24.6047 29.6472 26.3704H26.0948C25.6244 26.3704 25.2418 25.9924 25.2418 25.5278V22.5394C25.2418 22.0741 25.6244 21.6956 26.0987 21.6956C26.7846 21.6956 27.4125 21.4475 27.8968 21.0379H30.1611V21.0378ZM29.3458 12.242H26.0949C24.5684 12.242 23.3263 13.4688 23.3263 14.9768C23.3263 16.4855 24.5683 17.7129 26.0987 17.7129C26.5691 17.7129 26.9519 18.0909 26.9519 18.5556V18.9605C26.9519 19.0241 26.9441 19.0859 26.9305 19.1456H20.4576V9.56015C23.3265 9.63053 26.1891 10.0159 28.9878 10.7179C29.118 11.2239 29.2369 11.7321 29.3458 12.242ZM20.4576 2.74764C22.6595 2.86494 24.7547 3.38412 26.6697 4.23243C27.3327 5.66066 27.9087 7.1331 28.3872 8.63126C25.7768 8.05099 23.1198 7.72969 20.4576 7.66747V2.74764ZM26.6701 35.9509C24.755 36.7991 22.6596 37.3185 20.4577 37.4358V32.5164C23.1197 32.4542 25.7772 32.1328 28.3877 31.5522C27.9085 33.0503 27.3324 34.523 26.6701 35.9509ZM28.989 29.4649C26.1898 30.1674 23.3269 30.5531 20.4577 30.6234V21.0377H23.7822C23.4945 21.4692 23.3263 21.9851 23.3263 22.5393V25.5277C23.3263 27.0356 24.5684 28.2625 26.0949 28.2625H29.2769C29.1874 28.6645 29.0916 29.0654 28.989 29.4649ZM31.7867 32.505C31.0475 33.2191 30.2455 33.8697 29.3888 34.4474C29.8289 33.3178 30.2168 32.1686 30.5506 31.0078C30.9641 30.8919 31.3764 30.7711 31.7866 30.6419V32.505H31.7867ZM33.7023 30.3211V29.9843C33.8123 29.9435 33.9224 29.9027 34.0321 29.8611C33.9248 30.0163 33.8145 30.1695 33.7023 30.3211ZM37.0252 21.5134C36.8641 23.4663 36.3657 25.3867 35.5546 27.1752C34.8741 27.4835 34.184 27.7739 33.4848 28.0427C33.1452 27.2502 32.4377 26.6482 31.5753 26.4453C31.8668 24.654 32.034 22.847 32.0772 21.0378H37.0252V21.5134V21.5134Z" fill="#FDD000"/>
</svg>
