<svg width="39" height="38" viewBox="0 0 39 38" fill="none" xmlns="http://www.w3.org/2000/svg">
<path d="M39 4.40108C37.5658 5.12454 36.005 5.64521 34.3974 5.848C36.0665 4.68847 37.3164 2.85659 37.9126 0.69608C36.3464 1.7856 34.6306 2.54958 32.8414 2.95416C32.0935 2.01928 31.1891 1.27452 30.1844 0.766275C29.1796 0.25803 28.0961 -0.00280497 27.0014 2.27474e-05C22.5723 2.27474e-05 19.0102 4.19829 19.0102 9.35021C19.0102 10.0737 19.0852 10.7971 19.2071 11.4932C12.5751 11.0876 6.66014 7.38261 2.7278 1.71002C2.01128 3.14113 1.6358 4.77062 1.64043 6.42896C1.64043 9.67357 3.0512 12.5345 5.2025 14.2171C3.9347 14.1587 2.69659 13.7513 1.58887 13.0278V13.1429C1.58887 17.6865 4.33542 21.4517 7.99591 22.3177C7.30862 22.5265 6.60158 22.6333 5.89148 22.6356C5.37123 22.6356 4.8791 22.5753 4.38229 22.4931C5.39466 26.1981 8.34275 28.8891 11.8533 28.9768C9.10672 31.4925 5.66651 32.9723 1.93102 32.9723C1.26079 32.9723 0.64211 32.9449 0 32.8572C3.54332 35.5154 7.74751 37.05 12.2751 37.05C26.9733 37.05 35.0161 22.811 35.0161 10.4518C35.0161 10.0463 35.0161 9.64069 34.9927 9.23511C36.5487 7.90329 37.9126 6.25358 39 4.40108Z" fill="#FDD000"/>
</svg>
