<svg width="39" height="28" viewBox="0 0 39 28" fill="none" xmlns="http://www.w3.org/2000/svg">
<path d="M38.1772 4.26214C37.9553 3.43763 37.5207 2.68586 36.917 2.08209C36.3132 1.47832 35.5615 1.04372 34.737 0.821786C31.7008 2.83485e-07 19.5 0 19.5 0C19.5 0 7.29923 2.83485e-07 4.26296 0.821786C3.43849 1.04372 2.68677 1.47832 2.08303 2.08209C1.47929 2.68586 1.04471 3.43763 0.822789 4.26214C0.255851 7.35884 -0.0192684 10.5019 0.00104798 13.65C-0.0192684 16.7981 0.255851 19.9412 0.822789 23.0379C1.04471 23.8624 1.47929 24.6141 2.08303 25.2179C2.68677 25.8217 3.43849 26.2563 4.26296 26.4782C7.29923 27.3 19.5 27.3 19.5 27.3C19.5 27.3 31.7008 27.3 34.737 26.4782C35.5615 26.2563 36.3132 25.8217 36.917 25.2179C37.5207 24.6141 37.9553 23.8624 38.1772 23.0379C38.7441 19.9412 39.0193 16.7981 38.999 13.65C39.0193 10.5019 38.7441 7.35884 38.1772 4.26214ZM15.6002 19.5V7.8L25.7257 13.65L15.6002 19.5Z" fill="#FDD000"/>
</svg>
